<?xml version="1.0" encoding="iso-8859-1"?>
<!-- Generator: Adobe Illustrator 16.2.0, SVG Export Plug-In . SVG Version: 6.00 Build 0)  -->
<!DOCTYPE svg PUBLIC "-//W3C//DTD SVG 1.1//EN" "http://www.w3.org/Graphics/SVG/1.1/DTD/svg11.dtd">
<svg version="1.1" id="&#x421;&#x43B;&#x43E;&#x439;_1"
	 xmlns="http://www.w3.org/2000/svg" xmlns:xlink="http://www.w3.org/1999/xlink" x="0px" y="0px" width="363.194px"
	 height="189.021px" viewBox="2623.352 739.822 363.194 189.021" style="enable-background:new 2623.352 739.822 363.194 189.021;"
	 xml:space="preserve">
<polygon style="fill:#855992;" points="2986.545,739.822 2725.875,739.822 2623.352,845.881 2884.022,845.881 2884.022,928.843 
	2986.545,822.783 2986.545,739.822 2986.545,739.822 "/>
<path style="fill:#855992;" d="M2623.352,895.14v-1.65h1.414v-12.02h-1.414v-1.65h5.656v1.65h-1.649v12.02h6.363v-2.828h1.885v4.479
	H2623.352L2623.352,895.14z M2647.627,893.49c-0.235-0.472-0.235-0.707-0.472-1.179c-0.235-0.471-0.235-0.942-0.471-1.178h-5.656
	c0,0.235-0.236,0.707-0.472,1.178c-0.235,0.472-0.235,0.943-0.472,1.415h1.414v1.649h-5.186v-1.649h1.18l4.713-13.67h3.064
	c0.707,2.121,1.414,4.478,2.356,6.835c0.707,2.356,1.649,4.713,2.356,6.835h1.18v1.649h-5.186v-1.649h1.649V893.49z
	 M2646.213,889.247c-0.235-0.942-0.707-2.121-0.942-3.063c-0.236-0.943-0.707-1.886-0.943-3.064c0-0.235-0.235-0.472-0.235-0.707
	s-0.235-0.472-0.235-0.707l0,0l-0.472,1.414c-0.235,0.472-0.235,0.943-0.472,1.414c-0.235,0.472-0.235,0.943-0.471,1.65
	c-0.236,0.471-0.236,1.178-0.472,1.649s-0.235,0.942-0.472,1.414H2646.213L2646.213,889.247z M2653.284,881.47v-1.65h7.07
	c1.649,0,3.063,0.236,3.771,0.943c0.942,0.707,1.179,1.649,1.179,3.063c0,0.235,0,0.472,0,0.707s-0.236,0.707-0.236,0.942
	c-0.235,0.236-0.471,0.707-0.707,0.943c-0.235,0.235-0.707,0.472-1.178,0.707l0,0c0.471,0.235,0.942,0.472,1.178,0.707
	c0.236,0.235,0.472,0.472,0.707,0.942c0.236,0.236,0.236,0.707,0.472,1.179c0,0.472,0.235,0.707,0.235,1.179
	c0,0.707-0.235,1.178-0.471,1.885c-0.236,0.472-0.472,0.943-0.943,1.414c-0.471,0.472-0.942,0.707-1.414,0.943
	c-0.471,0.235-1.178,0.235-1.885,0.235h-8.014v-1.649h1.65V881.47H2653.284L2653.284,881.47z M2663.418,890.661
	c0-0.472,0-0.707-0.235-0.942c-0.236-0.236-0.236-0.707-0.472-0.943c-0.235-0.235-0.472-0.471-0.942-0.707
	c-0.472-0.235-0.707-0.235-1.179-0.235h-3.3v5.421h3.3c0.472,0,0.942,0,1.414-0.236c0.472-0.235,0.707-0.235,0.942-0.471
	c0.236-0.236,0.472-0.472,0.472-0.943C2663.418,891.368,2663.418,891.133,2663.418,890.661L2663.418,890.661z M2662.946,883.826
	c0-0.707-0.235-1.414-0.707-1.649c-0.471-0.472-1.178-0.707-2.121-0.707h-2.828v4.949h2.828c0.943,0,1.65-0.235,2.121-0.707
	C2662.711,885.24,2662.946,884.533,2662.946,883.826L2662.946,883.826z M2682.038,887.362c0,1.179-0.236,2.121-0.473,3.064
	c-0.235,0.942-0.707,1.885-1.178,2.592c-0.472,0.707-1.179,1.179-2.121,1.65c-0.943,0.472-1.886,0.707-2.828,0.707
	c-1.179,0-2.357-0.235-3.064-0.472c-0.942-0.472-1.649-0.942-2.121-1.649c-0.471-0.707-0.942-1.414-1.178-2.357
	c-0.236-0.942-0.472-2.121-0.472-3.299c0-1.179,0.235-2.122,0.472-3.064c0.235-0.942,0.707-1.886,1.178-2.593
	c0.472-0.707,1.179-1.414,2.121-1.649c0.943-0.472,1.886-0.707,3.064-0.707c1.178,0,2.356,0.235,3.063,0.707
	c0.942,0.472,1.649,0.942,2.121,1.649s0.942,1.65,1.179,2.593C2682.038,885.24,2682.038,886.419,2682.038,887.362L2682.038,887.362z
	 M2679.444,887.598c0-0.707,0-1.414-0.235-2.121c0-0.707-0.235-1.415-0.707-1.886c-0.235-0.472-0.707-0.943-1.179-1.414
	c-0.471-0.472-1.178-0.472-2.121-0.472c-0.942,0-1.649,0.235-2.121,0.472c-0.471,0.235-0.942,0.707-1.414,1.414
	c-0.235,0.472-0.471,1.179-0.707,1.886c-0.235,0.707-0.235,1.414-0.235,2.356c0,1.886,0.235,3.3,0.942,4.478
	c0.707,0.943,1.65,1.415,3.3,1.415c0.707,0,1.414-0.236,1.886-0.472c0.471-0.236,0.942-0.707,1.178-1.179
	c0.236-0.472,0.472-1.179,0.707-1.886C2679.444,889.012,2679.444,888.305,2679.444,887.598L2679.444,887.598z M2694.058,884.062
	c0-0.471,0-0.942-0.236-1.178c-0.235-0.236-0.235-0.707-0.707-0.707c-0.235-0.236-0.471-0.472-0.942-0.472
	c-0.235,0-0.707-0.235-0.942-0.235h-2.828v5.421h2.828c0.235,0,0.707,0,0.942,0s0.707-0.236,0.942-0.472
	c0.236-0.236,0.472-0.472,0.707-0.943C2693.821,885.005,2694.058,884.769,2694.058,884.062L2694.058,884.062z M2688.637,888.54
	v4.949h1.649v1.65h-5.656v-1.886h1.414V881.47h-1.414v-1.65h7.07c1.65,0,2.828,0.472,3.535,1.179c0.943,0.707,1.179,1.886,1.179,3.3
	c0,0.471,0,0.707-0.235,1.178c0,0.472-0.236,0.707-0.472,1.179s-0.472,0.707-0.942,0.943c-0.472,0.235-0.707,0.471-1.414,0.707
	l2.356,5.185l1.649,0.235v1.415c-0.235,0.235-0.707,0.235-0.942,0.235c-0.472,0-0.707,0-0.942,0c-0.472,0-0.943-0.235-1.179-0.472
	c-0.235-0.235-0.472-0.472-0.707-0.942l-2.356-5.421H2688.637L2688.637,888.54z M2710.084,893.49
	c-0.235-0.472-0.235-0.707-0.472-1.179c-0.235-0.471-0.235-0.942-0.471-1.178h-5.656c0,0.235-0.236,0.707-0.472,1.178
	c-0.235,0.472-0.235,0.943-0.472,1.415h1.414v1.649h-5.185v-1.649h1.179l4.713-13.67h3.064c0.707,2.121,1.414,4.478,2.356,6.835
	c0.708,2.356,1.649,4.713,2.356,6.835h1.18v1.649h-5.186v-1.649h1.649V893.49z M2708.905,889.247
	c-0.235-0.942-0.707-2.121-0.942-3.063c-0.235-0.943-0.707-1.886-0.942-3.064c0-0.235-0.236-0.472-0.236-0.707
	s-0.235-0.472-0.235-0.707l0,0l-0.472,1.414c-0.235,0.472-0.235,0.943-0.471,1.414c-0.236,0.472-0.236,0.943-0.472,1.65
	c-0.235,0.471-0.235,1.178-0.472,1.649c-0.235,0.472-0.235,0.942-0.471,1.414H2708.905L2708.905,889.247z M2717.626,895.14v-1.65
	h1.886v-12.02h-3.3v2.356h-1.885v-4.242h12.49v4.242h-1.885v-2.356h-3.3v12.02h1.886v1.65H2717.626L2717.626,895.14z
	 M2742.608,887.362c0,1.179-0.235,2.121-0.471,3.064c-0.236,0.942-0.707,1.885-1.179,2.592s-1.179,1.179-2.121,1.65
	s-1.886,0.707-2.828,0.707c-1.179,0-2.356-0.235-3.063-0.472c-0.943-0.472-1.65-0.942-2.121-1.649
	c-0.472-0.707-0.943-1.414-1.179-2.357c-0.235-0.942-0.472-2.121-0.472-3.299c0-1.179,0.236-2.122,0.472-3.064
	s0.707-1.886,1.179-2.593c0.471-0.707,1.178-1.414,2.121-1.649c0.942-0.472,1.885-0.707,3.063-0.707s2.356,0.235,3.063,0.707
	c0.943,0.472,1.65,0.942,2.121,1.649c0.472,0.707,0.943,1.65,1.179,2.593C2742.373,885.24,2742.608,886.419,2742.608,887.362
	L2742.608,887.362z M2740.017,887.598c0-0.707,0-1.414-0.236-2.121c0-0.707-0.235-1.415-0.707-1.886
	c-0.235-0.472-0.707-0.943-1.178-1.414c-0.472-0.472-1.179-0.472-2.121-0.472c-0.943,0-1.65,0.235-2.121,0.472
	c-0.472,0.235-0.943,0.707-1.414,1.414c-0.236,0.472-0.472,1.179-0.707,1.886c-0.236,0.707-0.236,1.414-0.236,2.356
	c0,1.886,0.236,3.3,0.943,4.478c0.707,0.943,1.649,1.415,3.299,1.415c0.707,0,1.414-0.236,1.886-0.472
	c0.472-0.236,0.942-0.707,1.179-1.179c0.235-0.472,0.471-1.179,0.707-1.886C2739.78,889.012,2740.017,888.305,2740.017,887.598
	L2740.017,887.598z M2754.394,884.062c0-0.471,0-0.942-0.236-1.178c-0.235-0.236-0.235-0.707-0.707-0.707
	c-0.235-0.236-0.471-0.472-0.942-0.472c-0.235,0-0.707-0.235-0.942-0.235h-2.828v5.421h2.828c0.235,0,0.707,0,0.942,0
	s0.707-0.236,0.942-0.472c0.236-0.236,0.472-0.472,0.707-0.943C2754.394,885.005,2754.394,884.769,2754.394,884.062
	L2754.394,884.062z M2748.973,888.54v4.949h1.649v1.65h-5.656v-1.886h1.414V881.47h-1.414v-1.65h7.07
	c1.65,0,2.828,0.472,3.535,1.179c0.943,0.707,1.179,1.886,1.179,3.3c0,0.471,0,0.707-0.235,1.178c0,0.472-0.236,0.707-0.472,1.179
	s-0.472,0.707-0.942,0.943c-0.472,0.235-0.707,0.471-1.414,0.707l2.356,5.185l1.649,0.235v1.415
	c-0.235,0.235-0.707,0.235-0.942,0.235c-0.472,0-0.707,0-0.942,0c-0.472,0-0.943-0.235-1.179-0.472
	c-0.235-0.235-0.472-0.472-0.707-0.942l-2.356-5.421H2748.973L2748.973,888.54z M2768.534,881.47h-1.414v-1.886h4.949v1.886h-1.178
	l-4.242,7.07v4.714h1.885v1.649h-6.127v-1.649h1.885v-4.714l-4.242-7.07h-1.178v-1.886h5.185v1.886h-1.414l2.828,5.421l0,0
	L2768.534,881.47L2768.534,881.47z M2780.319,895.14v-1.886h1.414V881.47h-1.414v-1.65h11.549v4.007h-1.886v-2.356h-5.893v4.714
	h5.421v1.885h-5.421v5.421h6.128v-2.356h1.886v4.007H2780.319L2780.319,895.14z M2802.474,879.82h5.186v1.886h-1.414l-3.771,5.656
	l4.007,6.128h1.414v1.65h-5.893v-1.886h1.415l-2.829-4.714l-3.063,4.714h1.414v1.649h-5.186v-1.649h1.414l4.007-6.128l-3.535-5.656
	h-1.649v-1.886h5.656v1.886h-1.414l2.592,4.242l2.828-4.242h-1.178V879.82L2802.474,879.82z M2821.564,884.298
	c0,0.472,0,0.942-0.235,1.649c-0.236,0.472-0.473,0.943-0.707,1.414c-0.473,0.472-0.943,0.943-1.414,1.179
	c-0.707,0.235-1.415,0.472-2.122,0.472h-3.063v4.478h1.885v1.65h-5.892v-1.65h1.414v-12.02h-1.414v-1.65h6.835
	c1.65,0,2.828,0.472,3.771,1.179C2821.093,881.705,2821.564,882.884,2821.564,884.298L2821.564,884.298z M2813.786,881.47v5.656
	h2.593c0.472,0,0.707,0,0.942-0.235c0.236,0,0.707-0.236,0.943-0.472c0.235-0.236,0.471-0.472,0.707-0.943
	c0.235-0.471,0.235-0.707,0.235-1.414c0-0.942-0.235-1.649-0.707-2.121c-0.472-0.471-1.179-0.707-2.121-0.707h-2.593V881.47z
	 M2823.686,895.14v-1.886h1.414V881.47h-1.414v-1.65h11.547v4.007h-1.884v-2.356h-5.893v4.714h5.421v1.885h-5.421v5.421h6.129
	v-2.356h1.884v4.007H2823.686L2823.686,895.14z M2847.254,884.062c0-0.471,0-0.942-0.236-1.178
	c-0.236-0.236-0.236-0.707-0.707-0.707c-0.236-0.236-0.471-0.472-0.943-0.472c-0.234,0-0.707-0.235-0.941-0.235h-2.828v5.421h2.828
	c0.234,0,0.707,0,0.941,0c0.236,0,0.707-0.236,0.943-0.472c0.236-0.236,0.471-0.472,0.707-0.943
	C2847.018,885.005,2847.254,884.769,2847.254,884.062L2847.254,884.062z M2841.833,888.54v4.949h1.65v1.65h-5.656v-1.886h1.414
	V881.47h-1.414v-1.65h7.07c1.65,0,2.828,0.472,3.535,1.179c0.943,0.707,1.178,1.886,1.178,3.3c0,0.471,0,0.707-0.234,1.178
	c-0.236,0.472-0.236,0.707-0.473,1.179c-0.234,0.472-0.471,0.707-0.941,0.943c-0.473,0.235-0.707,0.471-1.414,0.707l2.355,5.185
	l1.65,0.235v1.415c-0.236,0.235-0.707,0.235-0.943,0.235c-0.471,0-0.707,0-0.941,0c-0.473,0-0.943-0.235-1.18-0.472
	c-0.234-0.235-0.471-0.472-0.707-0.942l-2.355-5.421H2841.833L2841.833,888.54z M2855.502,895.14v-1.65h1.887v-12.02h-3.301v2.356
	h-1.885v-4.242h12.49v4.242h-1.885v-2.356h-3.299v12.02h1.885v1.65H2855.502L2855.502,895.14z"/>
</svg>
